<svg xmlns="http://www.w3.org/2000/svg" viewBox="0 0 64 64" role="img" aria-label="KhetLab favicon">
  <rect width="64" height="64" rx="14" fill="#F5F1E8"/>
  <path d="M24 18v11L14 48c-2 4 1 8 5 8h26c4 0 7-4 5-8L40 29V18" fill="none" stroke="#1A3D2E" stroke-width="4" stroke-linecap="round" stroke-linejoin="round"/>
  <path d="M21 18h22" fill="none" stroke="#1A3D2E" stroke-width="4" stroke-linecap="round"/>
  <path d="M19 46c4 2 8 3 13 3s9-1 13-3l4 7H15l4-7Z" fill="#1A3D2E"/>
  <path d="M32 48V24" fill="none" stroke="#1A3D2E" stroke-width="3.5" stroke-linecap="round"/>
  <path d="M32 8c5 6 5 11 0 17-5-6-5-11 0-17ZM31 27c-7 0-11-3-14-10 7 0 11 3 14 10ZM33 27c7 0 11-3 14-10-7 0-11 3-14 10ZM31 38c-7 0-11-3-14-10 7 0 11 3 14 10ZM33 38c7 0 11-3 14-10-7 0-11 3-14 10Z" fill="#1A3D2E"/>
  <path d="M31 45c-6-1-10-5-11-10 6 1 10 4 11 10ZM34 45c6-1 10-5 11-10-6 1-10 4-11 10Z" fill="#2D7A45"/>
</svg>
